<svg xmlns="http://www.w3.org/2000/svg" viewBox="0 0 100 100"><defs><style>.cls-1{fill:#ff5252;}.cls-2{fill:#fff;}.cls-3{fill:none;}.cls-4{fill:#232f3e;}</style></defs><title>Business-Applications_dark-bg</title><g id="Reference"><rect class="cls-1" x="8.5" y="8.5" width="82" height="82"/><path class="cls-2" d="M89,10V89H10V10H89m3-3H7V92H92V7Z"/><rect class="cls-3" width="100" height="100"/><g id="ICONS_-_EDIT" data-name="ICONS - EDIT"><path class="cls-4" d="M74.93,67.62A1,1,0,0,0,74,67H70V46.53A3.53,3.53,0,0,0,66.44,43H64V39a1,1,0,0,0-1-1H60V34a1,1,0,0,0-1-1H54V30a1,1,0,0,0-1-1H51V25H49v4H47a1,1,0,0,0-1,1v3H41a1,1,0,0,0-1,1v4H37a1,1,0,0,0-1,1v4H33.56A3.54,3.54,0,0,0,30,46.53h0V67H25.94a1,1,0,0,0-.92.62,1,1,0,0,0,.22,1.09l5.06,5A1,1,0,0,0,31,74H69a1,1,0,0,0,.7-.29l5.06-5A1,1,0,0,0,74.93,67.62ZM64,45h2.42A1.6,1.6,0,0,1,68,46.53V67H64ZM54,35h4v4a1,1,0,0,0,1,1h3V67H54Zm-6-4h4V67H48ZM38,40h3a1,1,0,0,0,1-1V35h4V67H38Zm-6,6.53A1.6,1.6,0,0,1,33.56,45H36V67H32ZM68.54,72H31.46l-3-3H71.57Z"/></g></g></svg>