<svg xmlns="http://www.w3.org/2000/svg" width="100" height="100" viewBox="0 0 100 100"><title>Customer-Enablement_dark-bg</title><g id="Example"><rect x="8.5" y="8.5" width="82" height="82" style="fill:#527fff"/><path d="M89,10V89H10V10H89m3-3H7V92H92V7Z" style="fill:#fff"/><rect width="100" height="100" style="fill:none"/><path d="M71.92,37.34,50,24.69,28.08,37.34V62.66L50,75.31l11.85-6.84a1.26,1.26,0,0,0,.68-.39l9.39-5.42ZM39.74,66.41c.31-7.53,4.82-13.57,10.25-13.57h0c5.47,0,10,6,10.25,13.57L50,72.34Zm4.75-21.66A5.51,5.51,0,1,1,50,50.26h0A5.52,5.52,0,0,1,44.49,44.75ZM69.34,61.17,62.74,65c-.63-6.23-3.83-11.39-8.15-13.58a8.09,8.09,0,1,0-9.21,0C41,53.54,37.87,58.67,37.25,65l-6.59-3.81V38.83L50,27.66,69.34,38.83Z" style="fill:#232f3e"/></g></svg>