<svg xmlns="http://www.w3.org/2000/svg" xmlns:xlink="http://www.w3.org/1999/xlink" xmlns:lucid="lucid" width="1500" height="640"><g transform="translate(-20 -12)" lucid:page-tab-id="0_0"><path d="M680 277c0-2.76 2.24-5 5-5h270c2.76 0 5 2.24 5 5v110c0 2.76-2.24 5-5 5H685c-2.76 0-5-2.24-5-5z" stroke="#000" stroke-width="2" fill="#fff"/><use xlink:href="#a" transform="matrix(1,0,0,1,685,277) translate(63.07499999999999 59.0875)"/><path d="M1000 37c0-2.76 2.24-5 5-5h150c2.76 0 5 2.24 5 5v110c0 2.76-2.24 5-5 5h-150c-2.76 0-5-2.24-5-5z" stroke="#000" stroke-width="2" fill="#fff"/><use xlink:href="#b" transform="matrix(1,0,0,1,1005,37) translate(35.574999999999996 59.0875)"/><path d="M1280 37c0-2.76 2.24-5 5-5h150c2.76 0 5 2.24 5 5v110c0 2.76-2.24 5-5 5h-150c-2.76 0-5-2.24-5-5z" stroke="#000" stroke-width="2" fill="#fff"/><use xlink:href="#c" transform="matrix(1,0,0,1,1285,37) translate(30.074999999999996 59.0875)"/><path d="M40 517c0-2.76 2.24-5 5-5h270c2.76 0 5 2.24 5 5v110c0 2.76-2.24 5-5 5H45c-2.76 0-5-2.24-5-5z" stroke="#000" stroke-width="2" fill="#fff"/><use xlink:href="#d" transform="matrix(1,0,0,1,45,517) translate(53.125 59.0875)"/><path d="M40 197c0-2.76 2.24-5 5-5h270c2.76 0 5 2.24 5 5v110c0 2.76-2.24 5-5 5H45c-2.76 0-5-2.24-5-5z" stroke="#000" stroke-width="2" fill="#fff"/><use xlink:href="#e" transform="matrix(1,0,0,1,45,196.99999999999997) translate(79.625 59.0875)"/><path d="M40 37c0-2.76 2.24-5 5-5h270c2.76 0 5 2.24 5 5v110c0 2.76-2.24 5-5 5H45c-2.76 0-5-2.24-5-5z" stroke="#000" stroke-width="2" fill="#fff"/><use xlink:href="#c" transform="matrix(1,0,0,1,45,37) translate(90.07499999999999 59.0875)"/><path d="M180 190v-18.5" stroke="#000" stroke-width="2" fill="none"/><path d="M181 191h-2v-1.03h2z"/><path d="M180 156.24l4.64 14.26h-9.28z" stroke="#000" stroke-width="2"/><use xlink:href="#f" transform="matrix(1,0,0,1,188,163.2) translate(0 14.4)"/><path d="M322 252h178v80h160.5" stroke="#000" stroke-width="2" fill="none"/><path d="M322.03 253H321v-2h1.03z"/><path d="M675.76 332l-14.26 4.64v-9.28z" stroke="#000" stroke-width="2"/><use xlink:href="#g" transform="matrix(1,0,0,1,337.5,226.39999999999998) translate(0 14.4)"/><path d="M40 357c0-2.76 2.24-5 5-5h270c2.76 0 5 2.24 5 5v110c0 2.76-2.24 5-5 5H45c-2.76 0-5-2.24-5-5z" stroke="#000" stroke-width="2" fill="#fff"/><use xlink:href="#h" transform="matrix(1,0,0,1,45,357) translate(79.9 59.0875)"/><path d="M180 510v-18.5" stroke="#000" stroke-width="2" fill="none"/><path d="M181 511h-2v-1.03h2z"/><path d="M180 476.24l4.64 14.26h-9.28z" stroke="#000" stroke-width="2"/><use xlink:href="#i" transform="matrix(1,0,0,1,188,484.53333333333336) translate(0 14.4)"/><path d="M322 572h498V411.5" stroke="#000" stroke-width="2" fill="none"/><path d="M322.03 573H321v-2h1.03z"/><path d="M820 396.24l4.64 14.26h-9.28z" stroke="#000" stroke-width="2"/><use xlink:href="#i" transform="matrix(1,0,0,1,343.88333333333327,546.4) translate(0 14.4)"/><path d="M322 412h178v-80h160.5" stroke="#000" stroke-width="2" fill="none"/><path d="M322.03 413H321v-2h1.03z"/><path d="M675.76 332l-14.26 4.64v-9.28z" stroke="#000" stroke-width="2"/><use xlink:href="#g" transform="matrix(1,0,0,1,337.5,415.99999999999994) translate(0 14.4)"/><path d="M322 92h498v160.5" stroke="#000" stroke-width="2" fill="none"/><path d="M322.03 93H321v-2h1.03z"/><path d="M820 267.76l-4.64-14.26h9.28z" stroke="#000" stroke-width="2"/><use xlink:href="#i" transform="matrix(1,0,0,1,337.2166666666667,66.4) translate(0 14.4)"/><path d="M1240 277c0-2.76 2.24-5 5-5h230c2.76 0 5 2.24 5 5v110c0 2.76-2.24 5-5 5h-230c-2.76 0-5-2.24-5-5z" stroke="#000" stroke-width="2" fill="#fff"/><use xlink:href="#j" transform="matrix(1,0,0,1,1245,277) translate(51.4 59.0875)"/><path d="M962 332h258.5" stroke="#000" stroke-width="2" fill="none"/><path d="M962.03 333H961v-2h1.03z"/><path d="M1235.76 332l-14.26 4.64v-9.28z" stroke="#000" stroke-width="2"/><use xlink:href="#k" transform="matrix(1,0,0,1,976.5898769574943,336) translate(0 14.4)"/><path d="M914.67 270V92h65.83" stroke="#000" stroke-width="2" fill="none"/><path d="M915.67 271h-2v-1.03h2z"/><path d="M995.76 92l-14.26 4.64v-9.28z" stroke="#000" stroke-width="2"/><use xlink:href="#l" transform="matrix(1,0,0,1,922.6666666666666,246.04031576395693) translate(0 14.4)"/><path d="M1162 92h98.5" stroke="#000" stroke-width="2" fill="none"/><path d="M1162.03 93H1161v-2h1.03z"/><path d="M1275.76 92l-14.26 4.64v-9.28z" stroke="#000" stroke-width="2"/><use xlink:href="#f" transform="matrix(1,0,0,1,1171.8333333333333,66.4) translate(0 14.4)"/><path d="M1360 154v98.5" stroke="#000" stroke-width="2" fill="none"/><path d="M1361 154.03h-2V153h2z"/><path d="M1360 267.76l-4.64-14.26h9.28z" stroke="#000" stroke-width="2"/><use xlink:href="#i" transform="matrix(1,0,0,1,1367.9999999999998,158.87932489451475) translate(0 14.4)"/><path d="M1260 297c0-2.76 2.24-5 5-5h230c2.76 0 5 2.24 5 5v110c0 2.76-2.24 5-5 5h-230c-2.76 0-5-2.24-5-5z" stroke="#000" stroke-width="2" fill="#fff"/><use xlink:href="#j" transform="matrix(1,0,0,1,1265,297) translate(51.4 59.0875)"/><defs><path d="M30 0v-248h33v221h125V0H30" id="m"/><path d="M141-36C126-15 110 5 73 4 37 3 15-17 15-53c-1-64 63-63 125-63 3-35-9-54-41-54-24 1-41 7-42 31l-33-3c5-37 33-52 76-52 45 0 72 20 72 64v82c-1 20 7 32 28 27v20c-31 9-61-2-59-35zM48-53c0 20 12 33 32 33 41-3 63-29 60-74-43 2-92-5-92 41" id="n"/><path d="M210-169c-67 3-38 105-44 169h-31v-121c0-29-5-50-35-48C34-165 62-65 56 0H25l-1-190h30c1 10-1 24 2 32 10-44 99-50 107 0 11-21 27-35 58-36 85-2 47 119 55 194h-31v-121c0-29-5-49-35-48" id="o"/><path d="M115-194c53 0 69 39 70 98 0 66-23 100-70 100C84 3 66-7 56-30L54 0H23l1-261h32v101c10-23 28-34 59-34zm-8 174c40 0 45-34 45-75 0-40-5-75-45-74-42 0-51 32-51 76 0 43 10 73 51 73" id="p"/><path d="M85-194c31 0 48 13 60 33l-1-100h32l1 261h-30c-2-10 0-23-3-31C134-8 116 4 85 4 32 4 16-35 15-94c0-66 23-100 70-100zm9 24c-40 0-46 34-46 75 0 40 6 74 45 74 42 0 51-32 51-76 0-42-9-74-50-73" id="q"/><path d="M33-154v-36h34v36H33zM33 0v-36h34V0H33" id="r"/><path d="M63-220v92h138v28H63V0H30v-248h175v28H63" id="s"/><path d="M84 4C-5 8 30-112 23-190h32v120c0 31 7 50 39 49 72-2 45-101 50-169h31l1 190h-30c-1-10 1-25-2-33-11 22-28 36-60 37" id="t"/><path d="M117-194c89-4 53 116 60 194h-32v-121c0-31-8-49-39-48C34-167 62-67 57 0H25l-1-190h30c1 10-1 24 2 32 11-22 29-35 61-36" id="u"/><path d="M96-169c-40 0-48 33-48 73s9 75 48 75c24 0 41-14 43-38l32 2c-6 37-31 61-74 61-59 0-76-41-82-99-10-93 101-131 147-64 4 7 5 14 7 22l-32 3c-4-21-16-35-41-35" id="v"/><path d="M59-47c-2 24 18 29 38 22v24C64 9 27 4 27-40v-127H5v-23h24l9-43h21v43h35v23H59v120" id="w"/><path d="M24-231v-30h32v30H24zM24 0v-190h32V0H24" id="x"/><path d="M100-194c62-1 85 37 85 99 1 63-27 99-86 99S16-35 15-95c0-66 28-99 85-99zM99-20c44 1 53-31 53-75 0-43-8-75-51-75s-53 32-53 75 10 74 51 75" id="y"/><g id="a"><use transform="matrix(0.05,0,0,0.05,0,0)" xlink:href="#m"/><use transform="matrix(0.05,0,0,0.05,10,0)" xlink:href="#n"/><use transform="matrix(0.05,0,0,0.05,20,0)" xlink:href="#o"/><use transform="matrix(0.05,0,0,0.05,34.95,0)" xlink:href="#p"/><use transform="matrix(0.05,0,0,0.05,44.95,0)" xlink:href="#q"/><use transform="matrix(0.05,0,0,0.05,54.95,0)" xlink:href="#n"/><use transform="matrix(0.05,0,0,0.05,64.95,0)" xlink:href="#r"/><use transform="matrix(0.05,0,0,0.05,69.95,0)" xlink:href="#r"/><use transform="matrix(0.05,0,0,0.05,74.95,0)" xlink:href="#s"/><use transform="matrix(0.05,0,0,0.05,85.9,0)" xlink:href="#t"/><use transform="matrix(0.05,0,0,0.05,95.9,0)" xlink:href="#u"/><use transform="matrix(0.05,0,0,0.05,105.9,0)" xlink:href="#v"/><use transform="matrix(0.05,0,0,0.05,114.9,0)" xlink:href="#w"/><use transform="matrix(0.05,0,0,0.05,119.9,0)" xlink:href="#x"/><use transform="matrix(0.05,0,0,0.05,123.85000000000001,0)" xlink:href="#y"/><use transform="matrix(0.05,0,0,0.05,133.85000000000002,0)" xlink:href="#u"/></g><path d="M33 0v-248h34V0H33" id="z"/><path d="M205 0l-28-72H64L36 0H1l101-248h38L239 0h-34zm-38-99l-47-123c-12 45-31 82-46 123h93" id="A"/><path d="M240 0l2-218c-23 76-54 145-80 218h-23L58-218 59 0H30v-248h44l77 211c21-75 51-140 76-211h43V0h-30" id="B"/><path d="M233-177c-1 41-23 64-60 70L243 0h-38l-65-103H63V0H30v-248c88 3 205-21 203 71zM63-129c60-2 137 13 137-47 0-61-80-42-137-45v92" id="C"/><path d="M24 0v-261h32V0H24" id="D"/><path d="M100-194c63 0 86 42 84 106H49c0 40 14 67 53 68 26 1 43-12 49-29l28 8c-11 28-37 45-77 45C44 4 14-33 15-96c1-61 26-98 85-98zm52 81c6-60-76-77-97-28-3 7-6 17-6 28h103" id="E"/><g id="b"><use transform="matrix(0.05,0,0,0.05,0,0)" xlink:href="#z"/><use transform="matrix(0.05,0,0,0.05,5,0)" xlink:href="#A"/><use transform="matrix(0.05,0,0,0.05,17,0)" xlink:href="#B"/><use transform="matrix(0.05,0,0,0.05,31.950000000000003,0)" xlink:href="#r"/><use transform="matrix(0.05,0,0,0.05,36.95,0)" xlink:href="#r"/><use transform="matrix(0.05,0,0,0.05,41.95,0)" xlink:href="#C"/><use transform="matrix(0.05,0,0,0.05,54.900000000000006,0)" xlink:href="#y"/><use transform="matrix(0.05,0,0,0.05,64.9,0)" xlink:href="#D"/><use transform="matrix(0.05,0,0,0.05,68.85000000000001,0)" xlink:href="#E"/></g><path d="M30-248c87 1 191-15 191 75 0 78-77 80-158 76V0H30v-248zm33 125c57 0 124 11 124-50 0-59-68-47-124-48v98" id="F"/><path d="M179-190L93 31C79 59 56 82 12 73V49c39 6 53-20 64-50L1-190h34L92-34l54-156h33" id="G"/><g id="c"><use transform="matrix(0.05,0,0,0.05,0,0)" xlink:href="#z"/><use transform="matrix(0.05,0,0,0.05,5,0)" xlink:href="#A"/><use transform="matrix(0.05,0,0,0.05,17,0)" xlink:href="#B"/><use transform="matrix(0.05,0,0,0.05,31.950000000000003,0)" xlink:href="#r"/><use transform="matrix(0.05,0,0,0.05,36.95,0)" xlink:href="#r"/><use transform="matrix(0.05,0,0,0.05,41.95,0)" xlink:href="#F"/><use transform="matrix(0.05,0,0,0.05,53.95,0)" xlink:href="#y"/><use transform="matrix(0.05,0,0,0.05,63.95,0)" xlink:href="#D"/><use transform="matrix(0.05,0,0,0.05,67.9,0)" xlink:href="#x"/><use transform="matrix(0.05,0,0,0.05,71.85000000000001,0)" xlink:href="#v"/><use transform="matrix(0.05,0,0,0.05,80.85000000000001,0)" xlink:href="#G"/></g><path d="M114-163C36-179 61-72 57 0H25l-1-190h30c1 12-1 29 2 39 6-27 23-49 58-41v29" id="H"/><path d="M135-143c-3-34-86-38-87 0 15 53 115 12 119 90S17 21 10-45l28-5c4 36 97 45 98 0-10-56-113-15-118-90-4-57 82-63 122-42 12 7 21 19 24 35" id="I"/><g id="d"><use transform="matrix(0.05,0,0,0.05,0,0)" xlink:href="#m"/><use transform="matrix(0.05,0,0,0.05,10,0)" xlink:href="#n"/><use transform="matrix(0.05,0,0,0.05,20,0)" xlink:href="#o"/><use transform="matrix(0.05,0,0,0.05,34.95,0)" xlink:href="#p"/><use transform="matrix(0.05,0,0,0.05,44.95,0)" xlink:href="#q"/><use transform="matrix(0.05,0,0,0.05,54.95,0)" xlink:href="#n"/><use transform="matrix(0.05,0,0,0.05,64.95,0)" xlink:href="#r"/><use transform="matrix(0.05,0,0,0.05,69.95,0)" xlink:href="#r"/><use transform="matrix(0.05,0,0,0.05,74.95,0)" xlink:href="#F"/><use transform="matrix(0.05,0,0,0.05,86.95,0)" xlink:href="#E"/><use transform="matrix(0.05,0,0,0.05,96.95,0)" xlink:href="#H"/><use transform="matrix(0.05,0,0,0.05,102.9,0)" xlink:href="#o"/><use transform="matrix(0.05,0,0,0.05,117.85000000000001,0)" xlink:href="#x"/><use transform="matrix(0.05,0,0,0.05,121.80000000000001,0)" xlink:href="#I"/><use transform="matrix(0.05,0,0,0.05,130.8,0)" xlink:href="#I"/><use transform="matrix(0.05,0,0,0.05,139.8,0)" xlink:href="#x"/><use transform="matrix(0.05,0,0,0.05,143.75,0)" xlink:href="#y"/><use transform="matrix(0.05,0,0,0.05,153.75,0)" xlink:href="#u"/></g><path d="M115-194c55 1 70 41 70 98S169 2 115 4C84 4 66-9 55-30l1 105H24l-1-265h31l2 30c10-21 28-34 59-34zm-8 174c40 0 45-34 45-75s-6-73-45-74c-42 0-51 32-51 76 0 43 10 73 51 73" id="J"/><g id="e"><use transform="matrix(0.05,0,0,0.05,0,0)" xlink:href="#z"/><use transform="matrix(0.05,0,0,0.05,5,0)" xlink:href="#A"/><use transform="matrix(0.05,0,0,0.05,17,0)" xlink:href="#B"/><use transform="matrix(0.05,0,0,0.05,31.950000000000003,0)" xlink:href="#r"/><use transform="matrix(0.05,0,0,0.05,36.95,0)" xlink:href="#r"/><use transform="matrix(0.05,0,0,0.05,41.95,0)" xlink:href="#F"/><use transform="matrix(0.05,0,0,0.05,53.95,0)" xlink:href="#H"/><use transform="matrix(0.05,0,0,0.05,59.900000000000006,0)" xlink:href="#x"/><use transform="matrix(0.05,0,0,0.05,63.85,0)" xlink:href="#u"/><use transform="matrix(0.05,0,0,0.05,73.85000000000001,0)" xlink:href="#v"/><use transform="matrix(0.05,0,0,0.05,82.85000000000001,0)" xlink:href="#x"/><use transform="matrix(0.05,0,0,0.05,86.80000000000001,0)" xlink:href="#J"/><use transform="matrix(0.05,0,0,0.05,96.80000000000001,0)" xlink:href="#n"/><use transform="matrix(0.05,0,0,0.05,106.80000000000001,0)" xlink:href="#D"/></g><path d="M106-169C34-169 62-67 57 0H25v-261h32l-1 103c12-21 28-36 61-36 89 0 53 116 60 194h-32v-121c2-32-8-49-39-48" id="K"/><g id="f"><use transform="matrix(0.05,0,0,0.05,0,0)" xlink:href="#A"/><use transform="matrix(0.05,0,0,0.05,12,0)" xlink:href="#w"/><use transform="matrix(0.05,0,0,0.05,17,0)" xlink:href="#w"/><use transform="matrix(0.05,0,0,0.05,22,0)" xlink:href="#n"/><use transform="matrix(0.05,0,0,0.05,32,0)" xlink:href="#v"/><use transform="matrix(0.05,0,0,0.05,41,0)" xlink:href="#K"/><use transform="matrix(0.05,0,0,0.05,51,0)" xlink:href="#E"/><use transform="matrix(0.05,0,0,0.05,61,0)" xlink:href="#q"/></g><path d="M108 0H70L1-190h34L89-25l56-165h34" id="L"/><path d="M143 0L79-87 56-68V0H24v-261h32v163l83-92h37l-77 82L181 0h-38" id="M"/><g id="g"><use transform="matrix(0.05,0,0,0.05,0,0)" xlink:href="#z"/><use transform="matrix(0.05,0,0,0.05,5,0)" xlink:href="#u"/><use transform="matrix(0.05,0,0,0.05,15,0)" xlink:href="#L"/><use transform="matrix(0.05,0,0,0.05,24,0)" xlink:href="#y"/><use transform="matrix(0.05,0,0,0.05,34,0)" xlink:href="#M"/><use transform="matrix(0.05,0,0,0.05,43,0)" xlink:href="#E"/></g><path d="M266 0h-40l-56-210L115 0H75L2-248h35L96-30l15-64 43-154h32l59 218 59-218h35" id="N"/><path d="M185-189c-5-48-123-54-124 2 14 75 158 14 163 119 3 78-121 87-175 55-17-10-28-26-33-46l33-7c5 56 141 63 141-1 0-78-155-14-162-118-5-82 145-84 179-34 5 7 8 16 11 25" id="O"/><g id="h"><use transform="matrix(0.05,0,0,0.05,0,0)" xlink:href="#A"/><use transform="matrix(0.05,0,0,0.05,11.35,0)" xlink:href="#N"/><use transform="matrix(0.05,0,0,0.05,28.299999999999997,0)" xlink:href="#O"/><use transform="matrix(0.05,0,0,0.05,40.3,0)" xlink:href="#r"/><use transform="matrix(0.05,0,0,0.05,45.3,0)" xlink:href="#r"/><use transform="matrix(0.05,0,0,0.05,50.3,0)" xlink:href="#O"/><use transform="matrix(0.05,0,0,0.05,62.29999999999999,0)" xlink:href="#E"/><use transform="matrix(0.05,0,0,0.05,72.3,0)" xlink:href="#H"/><use transform="matrix(0.05,0,0,0.05,78.25,0)" xlink:href="#L"/><use transform="matrix(0.05,0,0,0.05,87.25,0)" xlink:href="#x"/><use transform="matrix(0.05,0,0,0.05,91.2,0)" xlink:href="#v"/><use transform="matrix(0.05,0,0,0.05,100.2,0)" xlink:href="#E"/></g><path d="M101-234c-31-9-42 10-38 44h38v23H63V0H32v-167H5v-23h27c-7-52 17-82 69-68v24" id="P"/><g id="i"><use transform="matrix(0.05,0,0,0.05,0,0)" xlink:href="#C"/><use transform="matrix(0.05,0,0,0.05,12.950000000000001,0)" xlink:href="#E"/><use transform="matrix(0.05,0,0,0.05,22.950000000000003,0)" xlink:href="#P"/><use transform="matrix(0.05,0,0,0.05,27.950000000000003,0)" xlink:href="#E"/><use transform="matrix(0.05,0,0,0.05,37.95,0)" xlink:href="#H"/><use transform="matrix(0.05,0,0,0.05,43.900000000000006,0)" xlink:href="#E"/><use transform="matrix(0.05,0,0,0.05,53.900000000000006,0)" xlink:href="#u"/><use transform="matrix(0.05,0,0,0.05,63.900000000000006,0)" xlink:href="#v"/><use transform="matrix(0.05,0,0,0.05,72.9,0)" xlink:href="#E"/></g><g id="j"><use transform="matrix(0.05,0,0,0.05,0,0)" xlink:href="#A"/><use transform="matrix(0.05,0,0,0.05,11.35,0)" xlink:href="#N"/><use transform="matrix(0.05,0,0,0.05,28.299999999999997,0)" xlink:href="#O"/><use transform="matrix(0.05,0,0,0.05,40.3,0)" xlink:href="#r"/><use transform="matrix(0.05,0,0,0.05,45.3,0)" xlink:href="#r"/><use transform="matrix(0.05,0,0,0.05,50.3,0)" xlink:href="#C"/><use transform="matrix(0.05,0,0,0.05,63.25,0)" xlink:href="#E"/><use transform="matrix(0.05,0,0,0.05,73.25,0)" xlink:href="#I"/><use transform="matrix(0.05,0,0,0.05,82.25,0)" xlink:href="#y"/><use transform="matrix(0.05,0,0,0.05,92.25,0)" xlink:href="#t"/><use transform="matrix(0.05,0,0,0.05,102.25,0)" xlink:href="#H"/><use transform="matrix(0.05,0,0,0.05,108.2,0)" xlink:href="#v"/><use transform="matrix(0.05,0,0,0.05,117.2,0)" xlink:href="#E"/></g><g id="k"><use transform="matrix(0.05,0,0,0.05,0,0)" xlink:href="#z"/><use transform="matrix(0.05,0,0,0.05,5,0)" xlink:href="#u"/><use transform="matrix(0.05,0,0,0.05,15,0)" xlink:href="#w"/><use transform="matrix(0.05,0,0,0.05,20,0)" xlink:href="#E"/><use transform="matrix(0.05,0,0,0.05,30,0)" xlink:href="#H"/><use transform="matrix(0.05,0,0,0.05,35.95,0)" xlink:href="#n"/><use transform="matrix(0.05,0,0,0.05,45.95,0)" xlink:href="#v"/><use transform="matrix(0.05,0,0,0.05,54.95,0)" xlink:href="#w"/><use transform="matrix(0.05,0,0,0.05,59.95,0)" xlink:href="#I"/></g><g id="l"><use transform="matrix(0.05,0,0,0.05,0,0)" xlink:href="#A"/><use transform="matrix(0.05,0,0,0.05,12,0)" xlink:href="#I"/><use transform="matrix(0.05,0,0,0.05,21,0)" xlink:href="#I"/><use transform="matrix(0.05,0,0,0.05,30,0)" xlink:href="#t"/><use transform="matrix(0.05,0,0,0.05,40,0)" xlink:href="#o"/><use transform="matrix(0.05,0,0,0.05,54.95,0)" xlink:href="#E"/><use transform="matrix(0.05,0,0,0.05,64.95,0)" xlink:href="#I"/></g></defs></g></svg>