<svg xmlns="http://www.w3.org/2000/svg" width="100" height="100" viewBox="0 0 100 100"><title>Quantum-Technologies_dark-bg</title><g id="Example"><rect x="8.5" y="8.5" width="82" height="82" style="fill:#f90"/><path d="M89,10V89H10V10H89m3-3H7V92H92V7Z" style="fill:#fff"/><rect width="100" height="100" style="fill:none"/><path d="M68.05,48c3.11-3.82,4.07-7.21,2.73-9.54-1.62-2.81-6.33-3.33-12.3-1.83-.17-.59-.34-1.16-.53-1.71a3.64,3.64,0,0,0-1.42-7,3.6,3.6,0,0,0-2.11.69,5.25,5.25,0,0,0-3.69-1.74c-3.24,0-6,3.82-7.74,9.75-6-1.5-10.69-1-12.31,1.83-1.35,2.33-.38,5.72,2.72,9.54.55.67,1.18,1.35,1.83,2-.75.78-1.42,1.55-2,2.31a3.68,3.68,0,0,0-.94-.14,3.63,3.63,0,0,0-2.15,6.56,4.74,4.74,0,0,0,.56,2.85c1,1.8,3.32,2.66,6.4,2.66A25,25,0,0,0,43,63.4c1.69,5.94,4.5,9.75,7.74,9.75s6-3.81,7.73-9.74a28.6,28.6,0,0,0,4.07.74,3.63,3.63,0,0,0,7.13-1c0-.11,0-.22,0-.34a4.38,4.38,0,0,0,1.16-1.27c1.61-2.8-.29-7.13-4.57-11.56C66.87,49.33,67.5,48.65,68.05,48Zm1-8.54c.89,1.54,0,4.19-2.54,7.27-.52.64-1.1,1.28-1.72,1.91a47.88,47.88,0,0,0-4.86-3.91,48.69,48.69,0,0,0-1-6.17C64.17,37.22,68,37.6,69,39.43Zm-14.59,17c-1.26.73-2.5,1.37-3.71,2-1.25-.6-2.5-1.25-3.73-2S44.58,55,43.45,54.21c-.1-1.35-.16-2.75-.16-4.21s.06-2.85.16-4.2c1.14-.77,2.32-1.53,3.56-2.24s2.5-1.38,3.72-2c1.21.59,2.45,1.24,3.72,2S56.89,45,58,45.8c.11,1.37.16,2.78.16,4.2s0,2.86-.15,4.21C56.87,55,55.68,55.73,54.45,56.44Zm3.3.32A42,42,0,0,1,57,60.91c-1.28-.4-2.6-.88-3.94-1.45.78-.41,1.57-.83,2.36-1.29S57,57.24,57.75,56.76Zm-9.37,2.71c-1.38.58-2.7,1.06-4,1.45-.29-1.29-.53-2.68-.72-4.16.75.48,1.52,1,2.31,1.41S47.59,59.06,48.38,59.47Zm-7-6.77c-1.17-.88-2.25-1.79-3.25-2.7,1-.92,2.09-1.82,3.25-2.7q-.06,1.32-.06,2.7T41.35,52.7Zm2.35-9.46c.19-1.49.43-2.87.72-4.16a42.15,42.15,0,0,1,4,1.45c-.79.41-1.58.84-2.37,1.3S44.45,42.75,43.7,43.24Zm9.37-2.71c1.38-.58,2.7-1.06,4-1.45.29,1.31.53,2.7.72,4.15-.75-.48-1.51-.95-2.3-1.4S53.86,40.94,53.07,40.53Zm7,6.77c1.19.9,2.27,1.81,3.24,2.7a40.63,40.63,0,0,1-3.24,2.7q.06-1.34.06-2.7T60.1,47.3ZM56.53,29.9a1.64,1.64,0,1,1-1.64,1.64A1.64,1.64,0,0,1,56.53,29.9Zm-5.8-1a3.46,3.46,0,0,1,2.43,1.32,3.72,3.72,0,0,0-.27,1.37,3.62,3.62,0,0,0,3,3.57c.23.65.45,1.32.65,2a45.5,45.5,0,0,0-5.82,2.25,47.65,47.65,0,0,0-5.82-2.25C46.38,32,48.62,28.85,50.73,28.85ZM35,46.7c-2.5-3.08-3.43-5.73-2.54-7.27,1.05-1.83,4.88-2.21,10.08-.9a47.54,47.54,0,0,0-1,6.17,49.58,49.58,0,0,0-4.86,3.9C36.05,48,35.47,47.34,35,46.7Zm-2.68,7.46a1.64,1.64,0,1,1-1.64,1.64A1.64,1.64,0,0,1,32.27,54.16Zm.14,6.41a2.52,2.52,0,0,1-.31-1.15l.17,0A3.64,3.64,0,0,0,35.9,55.8a3.57,3.57,0,0,0-1-2.45c.53-.65,1.09-1.31,1.73-2a48.36,48.36,0,0,0,4.87,3.91,47.54,47.54,0,0,0,1,6.17C37.29,62.78,33.46,62.4,32.41,60.57ZM50.73,71.15c-2.11,0-4.35-3.13-5.82-8.3a47.29,47.29,0,0,0,5.81-2.23,47.67,47.67,0,0,0,5.82,2.24C55.07,68,52.83,71.15,50.73,71.15ZM66,64.82a1.64,1.64,0,1,1,1.64-1.64A1.64,1.64,0,0,1,66,64.82Zm3-4.24a3,3,0,0,1-.23.3A3.6,3.6,0,0,0,66,59.55a3.65,3.65,0,0,0-3.47,2.59A26.29,26.29,0,0,1,59,61.47a47.54,47.54,0,0,0,1-6.17,45.61,45.61,0,0,0,4.85-3.9C68.51,55.25,70.09,58.75,69,60.58Z" style="fill:#232f3e"/></g></svg>