<svg xmlns="http://www.w3.org/2000/svg" xmlns:xlink="http://www.w3.org/1999/xlink" xmlns:lucid="lucid" width="1306.31" height="605.49"><g transform="translate(-5.691666666666656 -12)" lucid:page-tab-id="0_0"><path d="M81 377c0-2.76 2.24-5 5-5h150c2.76 0 5 2.24 5 5v110c0 2.76-2.24 5-5 5H86c-2.76 0-5-2.24-5-5z" stroke="#000" stroke-width="2" fill="#fff"/><use xlink:href="#a" transform="matrix(1,0,0,1,86,377) translate(38.574999999999996 48.775)"/><use xlink:href="#b" transform="matrix(1,0,0,1,86,377) translate(19.599999999999994 70.375)"/><use xlink:href="#c" transform="matrix(1,0,0,1,86,377) translate(65.5 70.375)"/><path d="M377 377c0-2.76 2.24-5 5-5h240c2.76 0 5 2.24 5 5v110c0 2.76-2.24 5-5 5H382c-2.76 0-5-2.24-5-5z" stroke="#000" stroke-width="2" fill="#fff"/><use xlink:href="#d" transform="matrix(1,0,0,1,382,377) translate(24.17500000000001 59.0875)"/><path d="M1047 377c0-2.76 2.24-5 5-5h203c2.76 0 5 2.24 5 5v110c0 2.76-2.24 5-5 5h-203c-2.76 0-5-2.24-5-5z" stroke="#000" stroke-width="2" fill="#fff"/><use xlink:href="#e" transform="matrix(1,0,0,1,1052,377) translate(29.57499999999999 48.775)"/><use xlink:href="#f" transform="matrix(1,0,0,1,1052,377) translate(46.099999999999994 70.375)"/><use xlink:href="#g" transform="matrix(1,0,0,1,1052,377) translate(92 70.375)"/><path d="M377 217c0-2.76 2.24-5 5-5h240c2.76 0 5 2.24 5 5v110c0 2.76-2.24 5-5 5H382c-2.76 0-5-2.24-5-5z" stroke="#000" stroke-width="2" fill="#fff"/><use xlink:href="#h" transform="matrix(1,0,0,1,382,217) translate(25.450000000000003 48.775)"/><use xlink:href="#i" transform="matrix(1,0,0,1,382,217) translate(38.14999999999999 70.375)"/><use xlink:href="#j" transform="matrix(1,0,0,1,382,217) translate(108.05 70.375)"/><use xlink:href="#k" transform="matrix(1,0,0,1,382,217) translate(127 70.375)"/><path d="M162 370c0 .55-.45 1-1 1s-1-.45-1-1 .45-1 1-1 1 .45 1 1zm0-7.96c0 .55-.45 1-1 1s-1-.45-1-1 .45-1 1-1 1 .45 1 1zm0-7.96c0 .55-.45 1-1 1s-1-.45-1-1 .45-1 1-1 1 .45 1 1zm0-7.96c0 .55-.45 1-1 1s-1-.45-1-1 .45-1 1-1 1 .45 1 1zm0-7.96c0 .55-.45 1-1 1s-1-.45-1-1 .45-1 1-1 1 .45 1 1zm0-7.96c0 .56-.45 1-1 1s-1-.44-1-1c0-.55.45-1 1-1s1 .45 1 1zm0-7.96c0 .56-.45 1-1 1s-1-.44-1-1c0-.55.45-1 1-1s1 .45 1 1zm0-7.96c0 .56-.45 1-1 1s-1-.44-1-1c0-.55.45-1 1-1s1 .45 1 1zm0-7.96c0 .56-.45 1-1 1s-1-.44-1-1c0-.55.45-1 1-1s1 .45 1 1zm0-7.95c0 .55-.45 1-1 1s-1-.45-1-1c0-.56.45-1 1-1s1 .44 1 1zm0-7.96c0 .56-.45 1-1 1s-1-.44-1-1c0-.55.45-1 1-1s1 .45 1 1zm0-7.95c0 .55-.45 1-1 1s-1-.45-1-1c0-.56.45-1 1-1s1 .44 1 1zm0-7.96c0 .54-.45 1-1 1s-1-.46-1-1c0-.57.45-1 1-1s1 .43 1 1zm5.47-2.5c0 .55-.45 1-1 1s-1-.45-1-1 .45-1 1-1 1 .45 1 1zm7.96 0c0 .55-.45 1-1 1s-1-.45-1-1 .45-1 1-1 1 .45 1 1zm7.96 0c0 .55-.46 1-1 1-.56 0-1-.45-1-1s.44-1 1-1c.54 0 1 .45 1 1zm7.95 0c0 .55-.45 1-1 1s-1-.45-1-1 .45-1 1-1 1 .45 1 1zm7.96 0c0 .55-.44 1-1 1-.54 0-1-.45-1-1s.46-1 1-1c.56 0 1 .45 1 1zm7.97 0c0 .55-.45 1-1 1s-1-.45-1-1 .45-1 1-1 1 .45 1 1zm7.96 0c0 .55-.45 1-1 1s-1-.45-1-1 .45-1 1-1 1 .45 1 1zm7.96 0c0 .55-.46 1-1 1-.56 0-1-.45-1-1s.44-1 1-1c.54 0 1 .45 1 1zm7.95 0c0 .55-.45 1-1 1s-1-.45-1-1 .45-1 1-1 1 .45 1 1zm7.96 0c0 .55-.44 1-1 1-.55 0-1-.45-1-1s.45-1 1-1c.56 0 1 .45 1 1zm7.97 0c0 .55-.45 1-1 1-.56 0-1-.45-1-1s.44-1 1-1c.55 0 1 .45 1 1zm7.96 0c0 .55-.45 1-1 1-.56 0-1-.45-1-1s.44-1 1-1c.55 0 1 .45 1 1zm7.96 0c0 .55-.46 1-1 1-.57 0-1-.45-1-1s.43-1 1-1c.54 0 1 .45 1 1zm7.94 0c0 .55-.44 1-1 1-.55 0-1-.45-1-1s.45-1 1-1c.56 0 1 .45 1 1zm7.96 0c0 .55-.44 1-1 1-.55 0-1-.45-1-1s.45-1 1-1c.56 0 1 .45 1 1zm7.96 0c0 .55-.44 1-1 1-.55 0-1-.45-1-1s.45-1 1-1c.56 0 1 .45 1 1zm7.96 0c0 .55-.44 1-1 1-.55 0-1-.45-1-1s.45-1 1-1c.56 0 1 .45 1 1zm7.96 0c0 .55-.45 1-1 1s-1-.45-1-1 .45-1 1-1 1 .45 1 1zm7.96 0c0 .55-.45 1-1 1s-1-.45-1-1 .45-1 1-1 1 .45 1 1zm7.96 0c0 .55-.45 1-1 1s-1-.45-1-1 .45-1 1-1 1 .45 1 1zm7.96 0c0 .55-.45 1-1 1s-1-.45-1-1 .45-1 1-1 1 .45 1 1zm7.96 0c0 .55-.45 1-1 1s-1-.45-1-1 .45-1 1-1 1 .45 1 1zm7.96 0c0 .55-.45 1-1 1s-1-.45-1-1 .45-1 1-1 1 .45 1 1zm7.96 0c0 .55-.45 1-1 1s-1-.45-1-1 .45-1 1-1 1 .45 1 1z"/><path d="M162 371h-2v-1.03h2z"/><path d="M372.76 272l-14.26 4.64v-9.28z" stroke="#000" stroke-width="2"/><use xlink:href="#l" transform="matrix(1,0,0,1,169.00000000000003,341.97938621887664) translate(0 14.4)"/><path d="M243 432h114.5" stroke="#000" stroke-width="2" fill="none"/><path d="M243.03 433H242v-2h1.03z"/><path d="M372.76 432l-14.26 4.64v-9.28z" stroke="#000" stroke-width="2"/><use xlink:href="#m" transform="matrix(1,0,0,1,252,436) translate(0 14.4)"/><use xlink:href="#n" transform="matrix(1,0,0,1,252,436) translate(63 14.4)"/><path d="M629 272h524.5v80.5" stroke="#000" stroke-width="2" fill="none"/><path d="M629.03 273H628v-2h1.03z"/><path d="M1153.5 367.76l-4.64-14.26h9.28z" stroke="#000" stroke-width="2"/><use xlink:href="#o" transform="matrix(1,0,0,1,649.1507444340091,276) translate(0 14.4)"/><use xlink:href="#p" transform="matrix(1,0,0,1,649.1507444340091,276) translate(65.95 14.4)"/><use xlink:href="#q" transform="matrix(1,0,0,1,649.1507444340091,276) translate(156.85000000000002 14.4)"/><use xlink:href="#r" transform="matrix(1,0,0,1,649.1507444340091,276) translate(0 36)"/><use xlink:href="#s" transform="matrix(1,0,0,1,649.1507444340091,276) translate(72 36)"/><use xlink:href="#t" transform="matrix(1,0,0,1,649.1507444340091,276) translate(143.9 36)"/><path d="M763 377c0-2.76 2.24-5 5-5h150c2.76 0 5 2.24 5 5v110c0 2.76-2.24 5-5 5H768c-2.76 0-5-2.24-5-5z" stroke="#000" stroke-width="2" fill="#fff"/><use xlink:href="#u" transform="matrix(1,0,0,1,768.0000000000001,377) translate(31.5 48.775)"/><use xlink:href="#v" transform="matrix(1,0,0,1,768.0000000000001,377) translate(8.924999999999997 70.375)"/><use xlink:href="#w" transform="matrix(1,0,0,1,768.0000000000001,377) translate(60.175 70.375)"/><path d="M629 432h114.5" stroke="#000" stroke-width="2" fill="none"/><path d="M629.03 433H628v-2h1.03z"/><path d="M758.76 432l-14.26 4.64v-9.28z" stroke="#000" stroke-width="2"/><use xlink:href="#x" transform="matrix(1,0,0,1,640.9083333333334,436) translate(0 14.4)"/><use xlink:href="#y" transform="matrix(1,0,0,1,640.9083333333334,436) translate(41.9 14.4)"/><use xlink:href="#z" transform="matrix(1,0,0,1,640.9083333333334,436) translate(0 36)"/><path d="M1045 432H942.5" stroke="#000" stroke-width="2" fill="none"/><path d="M1046 433h-1.03v-2h1.03z"/><path d="M927.24 432l14.26-4.64v9.28z" stroke="#000" stroke-width="2"/><g><use xlink:href="#A" transform="matrix(1,0,0,1,975.8833333333334,436) translate(0 14.4)"/><use xlink:href="#z" transform="matrix(1,0,0,1,975.8833333333334,436) translate(0 36)"/></g><path d="M377 37c0-2.76 2.24-5 5-5h240c2.76 0 5 2.24 5 5v110c0 2.76-2.24 5-5 5H382c-2.76 0-5-2.24-5-5z" stroke="#000" stroke-width="2" fill="#fff"/><g><use xlink:href="#B" transform="matrix(1,0,0,1,382,37) translate(50.400000000000006 48.775)"/><use xlink:href="#i" transform="matrix(1,0,0,1,382,37) translate(38.14999999999999 70.375)"/><use xlink:href="#j" transform="matrix(1,0,0,1,382,37) translate(108.05 70.375)"/><use xlink:href="#k" transform="matrix(1,0,0,1,382,37) translate(127 70.375)"/></g><path d="M502 154v38.5" stroke="#000" stroke-width="2" fill="none"/><path d="M503 154.03h-2V153h2z"/><path d="M502 207.76l-4.64-14.26h9.28z" stroke="#000" stroke-width="2"/><g><use xlink:href="#C" transform="matrix(1,0,0,1,510,168.14736842105262) translate(0 14.4)"/><use xlink:href="#D" transform="matrix(1,0,0,1,510,168.14736842105262) translate(34 14.4)"/><use xlink:href="#t" transform="matrix(1,0,0,1,510,168.14736842105262) translate(114.9 14.4)"/></g><path d="M80 432c0 .55-.45 1-1 1s-1-.45-1-1 .45-1 1-1 1 .45 1 1zm-8 0c0 .55-.45 1-1 1-.56 0-1-.45-1-1s.44-1 1-1c.55 0 1 .45 1 1zm-8 0c0 .55-.46 1-1 1-.56 0-1-.45-1-1s.44-1 1-1c.54 0 1 .45 1 1zm-8.02 0c0 .55-.44 1-1 1-.55 0-1-.45-1-1s.45-1 1-1c.56 0 1 .45 1 1zm-8 0c0 .55-.45 1-1 1-.56 0-1-.45-1-1s.44-1 1-1c.55 0 1 .45 1 1zM41 430.97c0 .55-.45 1-1 1s-1-.45-1-1 .45-1 1-1 1 .45 1 1zm0-8c0 .55-.45 1-1 1s-1-.45-1-1c0-.56.45-1 1-1s1 .44 1 1zm0-8c0 .54-.45 1-1 1s-1-.46-1-1c0-.56.45-1 1-1s1 .44 1 1zm0-8.02c0 .56-.45 1-1 1s-1-.44-1-1c0-.55.45-1 1-1s1 .45 1 1zm0-8c0 .55-.45 1-1 1s-1-.45-1-1 .45-1 1-1 1 .45 1 1zm0-8c0 .55-.45 1-1 1s-1-.45-1-1c0-.56.45-1 1-1s1 .44 1 1zm0-8c0 .54-.45 1-1 1s-1-.46-1-1c0-.57.45-1 1-1s1 .43 1 1zm0-8.02c0 .55-.45 1-1 1s-1-.45-1-1 .45-1 1-1 1 .45 1 1zm0-8c0 .55-.45 1-1 1s-1-.45-1-1c0-.56.45-1 1-1s1 .44 1 1zm0-8c0 .54-.45 1-1 1s-1-.46-1-1c0-.56.45-1 1-1s1 .44 1 1zm0-8.02c0 .57-.45 1-1 1s-1-.43-1-1c0-.54.45-1 1-1s1 .46 1 1zm0-8c0 .56-.45 1-1 1s-1-.44-1-1c0-.54.45-1 1-1s1 .46 1 1zm0-8c0 .55-.45 1-1 1s-1-.45-1-1 .45-1 1-1 1 .45 1 1zm0-8c0 .55-.45 1-1 1s-1-.45-1-1c0-.56.45-1 1-1s1 .44 1 1zm0-8c0 .54-.45 1-1 1s-1-.46-1-1c0-.56.45-1 1-1s1 .44 1 1zm0-8c0 .54-.45 1-1 1s-1-.46-1-1c0-.57.45-1 1-1s1 .43 1 1zm0-8.02c0 .55-.45 1-1 1s-1-.45-1-1 .45-1 1-1 1 .45 1 1zm0-8c0 .55-.45 1-1 1s-1-.45-1-1c0-.56.45-1 1-1s1 .44 1 1zm0-8c0 .54-.45 1-1 1s-1-.46-1-1c0-.56.45-1 1-1s1 .44 1 1zm0-8.02c0 .55-.45 1-1 1s-1-.45-1-1 .45-1 1-1 1 .45 1 1zm0-8c0 .55-.45 1-1 1s-1-.45-1-1c0-.56.45-1 1-1s1 .44 1 1zm0-8c0 .54-.45 1-1 1s-1-.46-1-1c0-.56.45-1 1-1s1 .44 1 1zm0-8c0 .54-.45 1-1 1s-1-.46-1-1c0-.57.45-1 1-1s1 .43 1 1zm0-8.02c0 .55-.45 1-1 1s-1-.45-1-1 .45-1 1-1 1 .45 1 1zm0-8c0 .55-.45 1-1 1s-1-.45-1-1c0-.56.45-1 1-1s1 .44 1 1zm0-8c0 .54-.45 1-1 1s-1-.46-1-1c0-.56.45-1 1-1s1 .44 1 1zm0-8.02c0 .55-.45 1-1 1s-1-.45-1-1 .45-1 1-1 1 .45 1 1zm0-8c0 .55-.45 1-1 1s-1-.45-1-1c0-.56.45-1 1-1s1 .44 1 1zm0-8c0 .54-.45 1-1 1s-1-.46-1-1c0-.56.45-1 1-1s1 .44 1 1zm0-8c0 .54-.45 1-1 1s-1-.46-1-1c0-.57.45-1 1-1s1 .43 1 1zm0-8.02c0 .55-.45 1-1 1s-1-.45-1-1 .45-1 1-1 1 .45 1 1zm0-8c0 .55-.45 1-1 1s-1-.45-1-1c0-.56.45-1 1-1s1 .44 1 1zm0-8c0 .54-.45 1-1 1s-1-.46-1-1c0-.56.45-1 1-1s1 .44 1 1zm0-8.02c0 .55-.45 1-1 1s-1-.45-1-1 .45-1 1-1 1 .45 1 1zm0-8c0 .55-.45 1-1 1s-1-.45-1-1c0-.56.45-1 1-1s1 .44 1 1zm0-8c0 .54-.45 1-1 1s-1-.46-1-1c0-.56.45-1 1-1s1 .44 1 1zm0-8c0 .54-.45 1-1 1s-1-.46-1-1c0-.57.45-1 1-1s1 .43 1 1zm0-8.02c0 .55-.45 1-1 1s-1-.45-1-1 .45-1 1-1 1 .45 1 1zm0-8c0 .55-.45 1-1 1s-1-.45-1-1c0-.56.45-1 1-1s1 .44 1 1zm0-8c0 .54-.45 1-1 1s-1-.46-1-1c0-.56.45-1 1-1s1 .44 1 1zm0-8.02c0 .55-.45 1-1 1s-1-.45-1-1 .45-1 1-1 1 .45 1 1zm0-8c0 .55-.45 1-1 1s-1-.45-1-1c0-.56.45-1 1-1s1 .44 1 1zm0-8c0 .54-.45 1-1 1s-1-.46-1-1c0-.56.45-1 1-1s1 .44 1 1zM46.27 92c0 .55-.44 1-1 1-.55 0-1-.45-1-1s.45-1 1-1c.56 0 1 .45 1 1zm8 0c0 .55-.44 1-1 1-.54 0-1-.45-1-1s.46-1 1-1c.56 0 1 .45 1 1zm8.02 0c0 .55-.46 1-1 1-.57 0-1-.45-1-1s.43-1 1-1c.54 0 1 .45 1 1zm8 0c0 .55-.46 1-1 1-.56 0-1-.45-1-1s.44-1 1-1c.54 0 1 .45 1 1zm8 0c0 .55-.45 1-1 1s-1-.45-1-1 .45-1 1-1 1 .45 1 1zm8 0c0 .55-.44 1-1 1-.55 0-1-.45-1-1s.45-1 1-1c.56 0 1 .45 1 1zm8 0c0 .55-.44 1-1 1-.54 0-1-.45-1-1s.46-1 1-1c.56 0 1 .45 1 1zm8 0c0 .55-.43 1-1 1-.54 0-1-.45-1-1s.46-1 1-1c.57 0 1 .45 1 1zm8.02 0c0 .55-.45 1-1 1s-1-.45-1-1 .45-1 1-1 1 .45 1 1zm8 0c0 .55-.44 1-1 1-.55 0-1-.45-1-1s.45-1 1-1c.56 0 1 .45 1 1zm8 0c0 .55-.44 1-1 1-.54 0-1-.45-1-1s.46-1 1-1c.56 0 1 .45 1 1zm8.02 0c0 .55-.45 1-1 1s-1-.45-1-1 .45-1 1-1 1 .45 1 1zm8 0c0 .55-.44 1-1 1-.55 0-1-.45-1-1s.45-1 1-1c.56 0 1 .45 1 1zm8 0c0 .55-.44 1-1 1-.54 0-1-.45-1-1s.46-1 1-1c.56 0 1 .45 1 1zm8 0c0 .55-.43 1-1 1-.54 0-1-.45-1-1s.46-1 1-1c.57 0 1 .45 1 1zm8.02 0c0 .55-.45 1-1 1s-1-.45-1-1 .45-1 1-1 1 .45 1 1zm8 0c0 .55-.44 1-1 1-.55 0-1-.45-1-1s.45-1 1-1c.56 0 1 .45 1 1zm8 0c0 .55-.44 1-1 1-.54 0-1-.45-1-1s.46-1 1-1c.56 0 1 .45 1 1zm8.02 0c0 .55-.45 1-1 1s-1-.45-1-1 .45-1 1-1 1 .45 1 1zm8 0c0 .55-.44 1-1 1-.55 0-1-.45-1-1s.45-1 1-1c.56 0 1 .45 1 1zm8 0c0 .55-.44 1-1 1-.54 0-1-.45-1-1s.46-1 1-1c.56 0 1 .45 1 1zm8.02 0c0 .55-.45 1-1 1-.56 0-1-.45-1-1s.44-1 1-1c.55 0 1 .45 1 1zm8 0c0 .55-.45 1-1 1s-1-.45-1-1 .45-1 1-1 1 .45 1 1zm8 0c0 .55-.44 1-1 1-.55 0-1-.45-1-1s.45-1 1-1c.56 0 1 .45 1 1zm8 0c0 .55-.44 1-1 1-.54 0-1-.45-1-1s.46-1 1-1c.56 0 1 .45 1 1zm8.02 0c0 .55-.45 1-1 1s-1-.45-1-1 .45-1 1-1 1 .45 1 1zm8 0c0 .55-.44 1-1 1-.55 0-1-.45-1-1s.45-1 1-1c.56 0 1 .45 1 1zm8 0c0 .55-.44 1-1 1-.54 0-1-.45-1-1s.46-1 1-1c.56 0 1 .45 1 1zm8.02 0c0 .55-.45 1-1 1-.56 0-1-.45-1-1s.44-1 1-1c.55 0 1 .45 1 1zm8 0c0 .55-.45 1-1 1s-1-.45-1-1 .45-1 1-1 1 .45 1 1zm8 0c0 .55-.44 1-1 1-.55 0-1-.45-1-1s.45-1 1-1c.56 0 1 .45 1 1zm8 0c0 .55-.44 1-1 1-.54 0-1-.45-1-1s.46-1 1-1c.56 0 1 .45 1 1zm8.02 0c0 .55-.45 1-1 1s-1-.45-1-1 .45-1 1-1 1 .45 1 1zm8 0c0 .55-.44 1-1 1-.55 0-1-.45-1-1s.45-1 1-1c.56 0 1 .45 1 1zm8 0c0 .55-.44 1-1 1-.54 0-1-.45-1-1s.46-1 1-1c.56 0 1 .45 1 1zm8.02 0c0 .55-.45 1-1 1-.56 0-1-.45-1-1s.44-1 1-1c.55 0 1 .45 1 1zm8 0c0 .55-.45 1-1 1s-1-.45-1-1 .45-1 1-1 1 .45 1 1zm8 0c0 .55-.44 1-1 1-.55 0-1-.45-1-1s.45-1 1-1c.56 0 1 .45 1 1zm8 0c0 .55-.44 1-1 1-.54 0-1-.45-1-1s.46-1 1-1c.56 0 1 .45 1 1zm8.02 0c0 .55-.45 1-1 1s-1-.45-1-1 .45-1 1-1 1 .45 1 1z"/><path d="M80 433h-1.03v-2H80z"/><path d="M372.76 92l-14.26 4.64v-9.28z" stroke="#000" stroke-width="2"/><g><use xlink:href="#E" transform="matrix(1,0,0,1,16.691666666666656,436) translate(0 14.4)"/></g><path d="M1262 432h39v110h-147.5v-30.5" stroke="#000" stroke-width="2" fill="none"/><path d="M1262.03 433H1261v-2h1.03z"/><path d="M1153.5 496.24l4.64 14.26h-9.28z" stroke="#000" stroke-width="2"/><g><use xlink:href="#F" transform="matrix(1,0,0,1,1039.3951668848629,541.6880087853212) translate(0 14.4)"/><use xlink:href="#G" transform="matrix(1,0,0,1,1039.3951668848629,541.6880087853212) translate(73.9 14.4)"/><use xlink:href="#H" transform="matrix(1,0,0,1,1039.3951668848629,541.6880087853212) translate(0 36)"/><use xlink:href="#I" transform="matrix(1,0,0,1,1039.3951668848629,541.6880087853212) translate(59.95 36)"/><use xlink:href="#J" transform="matrix(1,0,0,1,1039.3951668848629,541.6880087853212) translate(124.95 36)"/><use xlink:href="#K" transform="matrix(1,0,0,1,1039.3951668848629,541.6880087853212) translate(0 57.6)"/></g><defs><path d="M127-220V0H93v-220H8v-28h204v28h-85" id="L"/><path d="M100-194c63 0 86 42 84 106H49c0 40 14 67 53 68 26 1 43-12 49-29l28 8c-11 28-37 45-77 45C44 4 14-33 15-96c1-61 26-98 85-98zm52 81c6-60-76-77-97-28-3 7-6 17-6 28h103" id="M"/><path d="M210-169c-67 3-38 105-44 169h-31v-121c0-29-5-50-35-48C34-165 62-65 56 0H25l-1-190h30c1 10-1 24 2 32 10-44 99-50 107 0 11-21 27-35 58-36 85-2 47 119 55 194h-31v-121c0-29-5-49-35-48" id="N"/><path d="M115-194c55 1 70 41 70 98S169 2 115 4C84 4 66-9 55-30l1 105H24l-1-265h31l2 30c10-21 28-34 59-34zm-8 174c40 0 45-34 45-75s-6-73-45-74c-42 0-51 32-51 76 0 43 10 73 51 73" id="O"/><path d="M24 0v-261h32V0H24" id="P"/><path d="M141-36C126-15 110 5 73 4 37 3 15-17 15-53c-1-64 63-63 125-63 3-35-9-54-41-54-24 1-41 7-42 31l-33-3c5-37 33-52 76-52 45 0 72 20 72 64v82c-1 20 7 32 28 27v20c-31 9-61-2-59-35zM48-53c0 20 12 33 32 33 41-3 63-29 60-74-43 2-92-5-92 41" id="Q"/><path d="M59-47c-2 24 18 29 38 22v24C64 9 27 4 27-40v-127H5v-23h24l9-43h21v43h35v23H59v120" id="R"/><g id="a"><use transform="matrix(0.05,0,0,0.05,0,0)" xlink:href="#L"/><use transform="matrix(0.05,0,0,0.05,8.950000000000001,0)" xlink:href="#M"/><use transform="matrix(0.05,0,0,0.05,18.950000000000003,0)" xlink:href="#N"/><use transform="matrix(0.05,0,0,0.05,33.900000000000006,0)" xlink:href="#O"/><use transform="matrix(0.05,0,0,0.05,43.900000000000006,0)" xlink:href="#P"/><use transform="matrix(0.05,0,0,0.05,47.85000000000001,0)" xlink:href="#Q"/><use transform="matrix(0.05,0,0,0.05,57.85,0)" xlink:href="#R"/><use transform="matrix(0.05,0,0,0.05,62.85,0)" xlink:href="#M"/></g><path d="M87 75C49 33 22-17 22-94c0-76 28-126 65-167h31c-38 41-64 92-64 168S80 34 118 75H87" id="S"/><path d="M84 4C-5 8 30-112 23-190h32v120c0 31 7 50 39 49 72-2 45-101 50-169h31l1 190h-30c-1-10 1-25-2-33-11 22-28 36-60 37" id="T"/><path d="M135-143c-3-34-86-38-87 0 15 53 115 12 119 90S17 21 10-45l28-5c4 36 97 45 98 0-10-56-113-15-118-90-4-57 82-63 122-42 12 7 21 19 24 35" id="U"/><path d="M114-163C36-179 61-72 57 0H25l-1-190h30c1 12-1 29 2 39 6-27 23-49 58-41v29" id="V"/><g id="b"><use transform="matrix(0.05,0,0,0.05,0,0)" xlink:href="#S"/><use transform="matrix(0.05,0,0,0.05,5.95,0)" xlink:href="#T"/><use transform="matrix(0.05,0,0,0.05,15.949999999999998,0)" xlink:href="#U"/><use transform="matrix(0.05,0,0,0.05,24.95,0)" xlink:href="#M"/><use transform="matrix(0.05,0,0,0.05,34.95,0)" xlink:href="#V"/></g><path d="M85-194c31 0 48 13 60 33l-1-100h32l1 261h-30c-2-10 0-23-3-31C134-8 116 4 85 4 32 4 16-35 15-94c0-66 23-100 70-100zm9 24c-40 0-46 34-46 75 0 40 6 74 45 74 42 0 51-32 51-76 0-42-9-74-50-73" id="W"/><path d="M101-234c-31-9-42 10-38 44h38v23H63V0H32v-167H5v-23h27c-7-52 17-82 69-68v24" id="X"/><path d="M24-231v-30h32v30H24zM24 0v-190h32V0H24" id="Y"/><path d="M117-194c89-4 53 116 60 194h-32v-121c0-31-8-49-39-48C34-167 62-67 57 0H25l-1-190h30c1 10-1 24 2 32 11-22 29-35 61-36" id="Z"/><path d="M33-261c38 41 65 92 65 168S71 34 33 75H2C39 34 66-17 66-93S39-220 2-261h31" id="aa"/><g id="c"><use transform="matrix(0.05,0,0,0.05,0,0)" xlink:href="#W"/><use transform="matrix(0.05,0,0,0.05,10,0)" xlink:href="#M"/><use transform="matrix(0.05,0,0,0.05,20,0)" xlink:href="#X"/><use transform="matrix(0.05,0,0,0.05,25,0)" xlink:href="#Y"/><use transform="matrix(0.05,0,0,0.05,28.950000000000003,0)" xlink:href="#Z"/><use transform="matrix(0.05,0,0,0.05,38.95,0)" xlink:href="#M"/><use transform="matrix(0.05,0,0,0.05,48.95,0)" xlink:href="#W"/><use transform="matrix(0.05,0,0,0.05,58.95,0)" xlink:href="#aa"/></g><path d="M185-189c-5-48-123-54-124 2 14 75 158 14 163 119 3 78-121 87-175 55-17-10-28-26-33-46l33-7c5 56 141 63 141-1 0-78-155-14-162-118-5-82 145-84 179-34 5 7 8 16 11 25" id="ab"/><path d="M108 0H70L1-190h34L89-25l56-165h34" id="ac"/><path d="M96-169c-40 0-48 33-48 73s9 75 48 75c24 0 41-14 43-38l32 2c-6 37-31 61-74 61-59 0-76-41-82-99-10-93 101-131 147-64 4 7 5 14 7 22l-32 3c-4-21-16-35-41-35" id="ad"/><path d="M33-154v-36h34v36H33zM33 0v-36h34V0H33" id="ae"/><path d="M212-179c-10-28-35-45-73-45-59 0-87 40-87 99 0 60 29 101 89 101 43 0 62-24 78-52l27 14C228-24 195 4 139 4 59 4 22-46 18-125c-6-104 99-153 187-111 19 9 31 26 39 46" id="af"/><path d="M100-194c62-1 85 37 85 99 1 63-27 99-86 99S16-35 15-95c0-66 28-99 85-99zM99-20c44 1 53-31 53-75 0-43-8-75-51-75s-53 32-53 75 10 74 51 75" id="ag"/><g id="d"><use transform="matrix(0.05,0,0,0.05,0,0)" xlink:href="#ab"/><use transform="matrix(0.05,0,0,0.05,12,0)" xlink:href="#M"/><use transform="matrix(0.05,0,0,0.05,22,0)" xlink:href="#V"/><use transform="matrix(0.05,0,0,0.05,27.950000000000003,0)" xlink:href="#ac"/><use transform="matrix(0.05,0,0,0.05,36.95,0)" xlink:href="#Y"/><use transform="matrix(0.05,0,0,0.05,40.900000000000006,0)" xlink:href="#ad"/><use transform="matrix(0.05,0,0,0.05,49.900000000000006,0)" xlink:href="#M"/><use transform="matrix(0.05,0,0,0.05,59.900000000000006,0)" xlink:href="#ae"/><use transform="matrix(0.05,0,0,0.05,64.9,0)" xlink:href="#ae"/><use transform="matrix(0.05,0,0,0.05,69.9,0)" xlink:href="#af"/><use transform="matrix(0.05,0,0,0.05,82.85000000000001,0)" xlink:href="#P"/><use transform="matrix(0.05,0,0,0.05,86.80000000000001,0)" xlink:href="#ag"/><use transform="matrix(0.05,0,0,0.05,96.80000000000001,0)" xlink:href="#T"/><use transform="matrix(0.05,0,0,0.05,106.80000000000001,0)" xlink:href="#W"/><use transform="matrix(0.05,0,0,0.05,116.80000000000001,0)" xlink:href="#X"/><use transform="matrix(0.05,0,0,0.05,121.80000000000001,0)" xlink:href="#ag"/><use transform="matrix(0.05,0,0,0.05,131.8,0)" xlink:href="#V"/><use transform="matrix(0.05,0,0,0.05,137.75,0)" xlink:href="#N"/><use transform="matrix(0.05,0,0,0.05,152.7,0)" xlink:href="#Q"/><use transform="matrix(0.05,0,0,0.05,162.7,0)" xlink:href="#R"/><use transform="matrix(0.05,0,0,0.05,167.7,0)" xlink:href="#Y"/><use transform="matrix(0.05,0,0,0.05,171.64999999999998,0)" xlink:href="#ag"/><use transform="matrix(0.05,0,0,0.05,181.64999999999998,0)" xlink:href="#Z"/></g><path d="M30 0v-248h33v221h125V0H30" id="ah"/><path d="M115-194c53 0 69 39 70 98 0 66-23 100-70 100C84 3 66-7 56-30L54 0H23l1-261h32v101c10-23 28-34 59-34zm-8 174c40 0 45-34 45-75 0-40-5-75-45-74-42 0-51 32-51 76 0 43 10 73 51 73" id="ai"/><path d="M63-220v92h138v28H63V0H30v-248h175v28H63" id="aj"/><g id="e"><use transform="matrix(0.05,0,0,0.05,0,0)" xlink:href="#ah"/><use transform="matrix(0.05,0,0,0.05,10,0)" xlink:href="#Q"/><use transform="matrix(0.05,0,0,0.05,20,0)" xlink:href="#N"/><use transform="matrix(0.05,0,0,0.05,34.95,0)" xlink:href="#ai"/><use transform="matrix(0.05,0,0,0.05,44.95,0)" xlink:href="#W"/><use transform="matrix(0.05,0,0,0.05,54.95,0)" xlink:href="#Q"/><use transform="matrix(0.05,0,0,0.05,64.95,0)" xlink:href="#ae"/><use transform="matrix(0.05,0,0,0.05,69.95,0)" xlink:href="#ae"/><use transform="matrix(0.05,0,0,0.05,74.95,0)" xlink:href="#aj"/><use transform="matrix(0.05,0,0,0.05,85.9,0)" xlink:href="#T"/><use transform="matrix(0.05,0,0,0.05,95.9,0)" xlink:href="#Z"/><use transform="matrix(0.05,0,0,0.05,105.9,0)" xlink:href="#ad"/><use transform="matrix(0.05,0,0,0.05,114.9,0)" xlink:href="#R"/><use transform="matrix(0.05,0,0,0.05,119.9,0)" xlink:href="#Y"/><use transform="matrix(0.05,0,0,0.05,123.85000000000001,0)" xlink:href="#ag"/><use transform="matrix(0.05,0,0,0.05,133.85000000000002,0)" xlink:href="#Z"/></g><g id="f"><use transform="matrix(0.05,0,0,0.05,0,0)" xlink:href="#S"/><use transform="matrix(0.05,0,0,0.05,5.95,0)" xlink:href="#T"/><use transform="matrix(0.05,0,0,0.05,15.949999999999998,0)" xlink:href="#U"/><use transform="matrix(0.05,0,0,0.05,24.95,0)" xlink:href="#M"/><use transform="matrix(0.05,0,0,0.05,34.95,0)" xlink:href="#V"/></g><g id="g"><use transform="matrix(0.05,0,0,0.05,0,0)" xlink:href="#W"/><use transform="matrix(0.05,0,0,0.05,10,0)" xlink:href="#M"/><use transform="matrix(0.05,0,0,0.05,20,0)" xlink:href="#X"/><use transform="matrix(0.05,0,0,0.05,25,0)" xlink:href="#Y"/><use transform="matrix(0.05,0,0,0.05,28.950000000000003,0)" xlink:href="#Z"/><use transform="matrix(0.05,0,0,0.05,38.95,0)" xlink:href="#M"/><use transform="matrix(0.05,0,0,0.05,48.95,0)" xlink:href="#W"/><use transform="matrix(0.05,0,0,0.05,58.95,0)" xlink:href="#aa"/></g><path d="M205 0l-28-72H64L36 0H1l101-248h38L239 0h-34zm-38-99l-47-123c-12 45-31 82-46 123h93" id="ak"/><path d="M266 0h-40l-56-210L115 0H75L2-248h35L96-30l15-64 43-154h32l59 218 59-218h35" id="al"/><path d="M233-177c-1 41-23 64-60 70L243 0h-38l-65-103H63V0H30v-248c88 3 205-21 203 71zM63-129c60-2 137 13 137-47 0-61-80-42-137-45v92" id="am"/><g id="h"><use transform="matrix(0.05,0,0,0.05,0,0)" xlink:href="#ak"/><use transform="matrix(0.05,0,0,0.05,11.35,0)" xlink:href="#al"/><use transform="matrix(0.05,0,0,0.05,28.299999999999997,0)" xlink:href="#ab"/><use transform="matrix(0.05,0,0,0.05,40.3,0)" xlink:href="#ae"/><use transform="matrix(0.05,0,0,0.05,45.3,0)" xlink:href="#ae"/><use transform="matrix(0.05,0,0,0.05,50.3,0)" xlink:href="#af"/><use transform="matrix(0.05,0,0,0.05,63.25,0)" xlink:href="#T"/><use transform="matrix(0.05,0,0,0.05,73.25,0)" xlink:href="#U"/><use transform="matrix(0.05,0,0,0.05,82.25,0)" xlink:href="#R"/><use transform="matrix(0.05,0,0,0.05,87.25,0)" xlink:href="#ag"/><use transform="matrix(0.05,0,0,0.05,97.25,0)" xlink:href="#N"/><use transform="matrix(0.05,0,0,0.05,112.2,0)" xlink:href="#am"/><use transform="matrix(0.05,0,0,0.05,125.15,0)" xlink:href="#M"/><use transform="matrix(0.05,0,0,0.05,135.15,0)" xlink:href="#U"/><use transform="matrix(0.05,0,0,0.05,144.15,0)" xlink:href="#ag"/><use transform="matrix(0.05,0,0,0.05,154.15,0)" xlink:href="#T"/><use transform="matrix(0.05,0,0,0.05,164.15,0)" xlink:href="#V"/><use transform="matrix(0.05,0,0,0.05,170.1,0)" xlink:href="#ad"/><use transform="matrix(0.05,0,0,0.05,179.1,0)" xlink:href="#M"/></g><g id="i"><use transform="matrix(0.05,0,0,0.05,0,0)" xlink:href="#S"/><use transform="matrix(0.05,0,0,0.05,5.95,0)" xlink:href="#W"/><use transform="matrix(0.05,0,0,0.05,15.949999999999998,0)" xlink:href="#M"/><use transform="matrix(0.05,0,0,0.05,25.950000000000003,0)" xlink:href="#X"/><use transform="matrix(0.05,0,0,0.05,30.950000000000003,0)" xlink:href="#Y"/><use transform="matrix(0.05,0,0,0.05,34.9,0)" xlink:href="#Z"/><use transform="matrix(0.05,0,0,0.05,44.9,0)" xlink:href="#M"/><use transform="matrix(0.05,0,0,0.05,54.900000000000006,0)" xlink:href="#W"/></g><g id="j"><use transform="matrix(0.05,0,0,0.05,0,0)" xlink:href="#Y"/><use transform="matrix(0.05,0,0,0.05,3.95,0)" xlink:href="#Z"/></g><g id="k"><use transform="matrix(0.05,0,0,0.05,0,0)" xlink:href="#R"/><use transform="matrix(0.05,0,0,0.05,5,0)" xlink:href="#M"/><use transform="matrix(0.05,0,0,0.05,15,0)" xlink:href="#N"/><use transform="matrix(0.05,0,0,0.05,29.950000000000003,0)" xlink:href="#O"/><use transform="matrix(0.05,0,0,0.05,39.95,0)" xlink:href="#P"/><use transform="matrix(0.05,0,0,0.05,43.900000000000006,0)" xlink:href="#Q"/><use transform="matrix(0.05,0,0,0.05,53.900000000000006,0)" xlink:href="#R"/><use transform="matrix(0.05,0,0,0.05,58.900000000000006,0)" xlink:href="#M"/><use transform="matrix(0.05,0,0,0.05,68.9,0)" xlink:href="#aa"/></g><g id="l"><use transform="matrix(0.05,0,0,0.05,0,0)" xlink:href="#W"/><use transform="matrix(0.05,0,0,0.05,10,0)" xlink:href="#M"/><use transform="matrix(0.05,0,0,0.05,20,0)" xlink:href="#X"/><use transform="matrix(0.05,0,0,0.05,25,0)" xlink:href="#Y"/><use transform="matrix(0.05,0,0,0.05,28.950000000000003,0)" xlink:href="#Z"/><use transform="matrix(0.05,0,0,0.05,38.95,0)" xlink:href="#M"/><use transform="matrix(0.05,0,0,0.05,48.95,0)" xlink:href="#U"/></g><g id="m"><use transform="matrix(0.05,0,0,0.05,0,0)" xlink:href="#O"/><use transform="matrix(0.05,0,0,0.05,10,0)" xlink:href="#Q"/><use transform="matrix(0.05,0,0,0.05,20,0)" xlink:href="#U"/><use transform="matrix(0.05,0,0,0.05,29,0)" xlink:href="#U"/><use transform="matrix(0.05,0,0,0.05,38,0)" xlink:href="#M"/><use transform="matrix(0.05,0,0,0.05,48,0)" xlink:href="#W"/></g><g id="n"><use transform="matrix(0.05,0,0,0.05,0,0)" xlink:href="#R"/><use transform="matrix(0.05,0,0,0.05,5,0)" xlink:href="#ag"/></g><path d="M143 0L79-87 56-68V0H24v-261h32v163l83-92h37l-77 82L181 0h-38" id="an"/><g id="o"><use transform="matrix(0.05,0,0,0.05,0,0)" xlink:href="#Y"/><use transform="matrix(0.05,0,0,0.05,3.95,0)" xlink:href="#Z"/><use transform="matrix(0.05,0,0,0.05,13.949999999999998,0)" xlink:href="#ac"/><use transform="matrix(0.05,0,0,0.05,22.95,0)" xlink:href="#ag"/><use transform="matrix(0.05,0,0,0.05,32.95,0)" xlink:href="#an"/><use transform="matrix(0.05,0,0,0.05,41.95,0)" xlink:href="#M"/><use transform="matrix(0.05,0,0,0.05,51.95,0)" xlink:href="#U"/></g><g id="p"><use transform="matrix(0.05,0,0,0.05,0,0)" xlink:href="#V"/><use transform="matrix(0.05,0,0,0.05,5.95,0)" xlink:href="#M"/><use transform="matrix(0.05,0,0,0.05,15.949999999999998,0)" xlink:href="#X"/><use transform="matrix(0.05,0,0,0.05,20.95,0)" xlink:href="#M"/><use transform="matrix(0.05,0,0,0.05,30.950000000000003,0)" xlink:href="#V"/><use transform="matrix(0.05,0,0,0.05,36.9,0)" xlink:href="#M"/><use transform="matrix(0.05,0,0,0.05,46.9,0)" xlink:href="#Z"/><use transform="matrix(0.05,0,0,0.05,56.900000000000006,0)" xlink:href="#ad"/><use transform="matrix(0.05,0,0,0.05,65.9,0)" xlink:href="#M"/><use transform="matrix(0.05,0,0,0.05,75.9,0)" xlink:href="#W"/></g><g id="q"><use transform="matrix(0.05,0,0,0.05,0,0)" xlink:href="#P"/><use transform="matrix(0.05,0,0,0.05,3.95,0)" xlink:href="#Q"/><use transform="matrix(0.05,0,0,0.05,13.949999999999998,0)" xlink:href="#N"/><use transform="matrix(0.05,0,0,0.05,28.899999999999995,0)" xlink:href="#ai"/><use transform="matrix(0.05,0,0,0.05,38.9,0)" xlink:href="#W"/><use transform="matrix(0.05,0,0,0.05,48.9,0)" xlink:href="#Q"/></g><path d="M141 0L90-78 38 0H4l68-98-65-92h35l48 74 47-74h35l-64 92 68 98h-35" id="ao"/><g id="r"><use transform="matrix(0.05,0,0,0.05,0,0)" xlink:href="#M"/><use transform="matrix(0.05,0,0,0.05,10,0)" xlink:href="#ao"/><use transform="matrix(0.05,0,0,0.05,19,0)" xlink:href="#O"/><use transform="matrix(0.05,0,0,0.05,29,0)" xlink:href="#ag"/><use transform="matrix(0.05,0,0,0.05,39,0)" xlink:href="#U"/><use transform="matrix(0.05,0,0,0.05,48,0)" xlink:href="#M"/><use transform="matrix(0.05,0,0,0.05,58,0)" xlink:href="#U"/></g><g id="s"><use transform="matrix(0.05,0,0,0.05,0,0)" xlink:href="#V"/><use transform="matrix(0.05,0,0,0.05,5.95,0)" xlink:href="#M"/><use transform="matrix(0.05,0,0,0.05,15.949999999999998,0)" xlink:href="#R"/><use transform="matrix(0.05,0,0,0.05,20.95,0)" xlink:href="#T"/><use transform="matrix(0.05,0,0,0.05,30.950000000000003,0)" xlink:href="#V"/><use transform="matrix(0.05,0,0,0.05,36.9,0)" xlink:href="#Z"/><use transform="matrix(0.05,0,0,0.05,46.9,0)" xlink:href="#M"/><use transform="matrix(0.05,0,0,0.05,56.900000000000006,0)" xlink:href="#W"/></g><g id="t"><use transform="matrix(0.05,0,0,0.05,0,0)" xlink:href="#O"/><use transform="matrix(0.05,0,0,0.05,10,0)" xlink:href="#V"/><use transform="matrix(0.05,0,0,0.05,15.949999999999998,0)" xlink:href="#ag"/><use transform="matrix(0.05,0,0,0.05,25.950000000000003,0)" xlink:href="#O"/><use transform="matrix(0.05,0,0,0.05,35.95,0)" xlink:href="#M"/><use transform="matrix(0.05,0,0,0.05,45.95,0)" xlink:href="#V"/><use transform="matrix(0.05,0,0,0.05,51.900000000000006,0)" xlink:href="#R"/><use transform="matrix(0.05,0,0,0.05,56.900000000000006,0)" xlink:href="#Y"/><use transform="matrix(0.05,0,0,0.05,60.85,0)" xlink:href="#M"/><use transform="matrix(0.05,0,0,0.05,70.85000000000001,0)" xlink:href="#U"/></g><path d="M126-127c33 6 58 20 58 59 0 88-139 92-164 29-3-8-5-16-6-25l32-3c6 27 21 44 54 44 32 0 52-15 52-46 0-38-36-46-79-43v-28c39 1 72-4 72-42 0-27-17-43-46-43-28 0-47 15-49 41l-32-3c6-42 35-63 81-64 48-1 79 21 79 65 0 36-21 52-52 59" id="ap"/><path d="M160-131c35 5 61 23 61 61C221 17 115-2 30 0v-248c76 3 177-17 177 60 0 33-19 50-47 57zm-97-11c50-1 110 9 110-42 0-47-63-36-110-37v79zm0 115c55-2 124 14 124-45 0-56-70-42-124-44v89" id="aq"/><g id="u"><use transform="matrix(0.05,0,0,0.05,0,0)" xlink:href="#ab"/><use transform="matrix(0.05,0,0,0.05,12,0)" xlink:href="#ap"/><use transform="matrix(0.05,0,0,0.05,22,0)" xlink:href="#ae"/><use transform="matrix(0.05,0,0,0.05,27,0)" xlink:href="#ae"/><use transform="matrix(0.05,0,0,0.05,32,0)" xlink:href="#aq"/><use transform="matrix(0.05,0,0,0.05,44,0)" xlink:href="#T"/><use transform="matrix(0.05,0,0,0.05,54,0)" xlink:href="#ad"/><use transform="matrix(0.05,0,0,0.05,63,0)" xlink:href="#an"/><use transform="matrix(0.05,0,0,0.05,72,0)" xlink:href="#M"/><use transform="matrix(0.05,0,0,0.05,82,0)" xlink:href="#R"/></g><g id="v"><use transform="matrix(0.05,0,0,0.05,0,0)" xlink:href="#S"/><use transform="matrix(0.05,0,0,0.05,5.95,0)" xlink:href="#ak"/><use transform="matrix(0.05,0,0,0.05,17.3,0)" xlink:href="#al"/><use transform="matrix(0.05,0,0,0.05,34.25,0)" xlink:href="#ab"/></g><path d="M177-190C167-65 218 103 67 71c-23-6-38-20-44-43l32-5c15 47 100 32 89-28v-30C133-14 115 1 83 1 29 1 15-40 15-95c0-56 16-97 71-98 29-1 48 16 59 35 1-10 0-23 2-32h30zM94-22c36 0 50-32 50-73 0-42-14-75-50-75-39 0-46 34-46 75s6 73 46 73" id="ar"/><g id="w"><use transform="matrix(0.05,0,0,0.05,0,0)" xlink:href="#N"/><use transform="matrix(0.05,0,0,0.05,14.950000000000001,0)" xlink:href="#Q"/><use transform="matrix(0.05,0,0,0.05,24.950000000000003,0)" xlink:href="#Z"/><use transform="matrix(0.05,0,0,0.05,34.95,0)" xlink:href="#Q"/><use transform="matrix(0.05,0,0,0.05,44.95,0)" xlink:href="#ar"/><use transform="matrix(0.05,0,0,0.05,54.95,0)" xlink:href="#M"/><use transform="matrix(0.05,0,0,0.05,64.95,0)" xlink:href="#W"/><use transform="matrix(0.05,0,0,0.05,74.95,0)" xlink:href="#aa"/></g><g id="x"><use transform="matrix(0.05,0,0,0.05,0,0)" xlink:href="#O"/><use transform="matrix(0.05,0,0,0.05,10,0)" xlink:href="#ag"/><use transform="matrix(0.05,0,0,0.05,20,0)" xlink:href="#P"/><use transform="matrix(0.05,0,0,0.05,23.95,0)" xlink:href="#P"/><use transform="matrix(0.05,0,0,0.05,27.899999999999995,0)" xlink:href="#U"/></g><g id="y"><use transform="matrix(0.05,0,0,0.05,0,0)" xlink:href="#X"/><use transform="matrix(0.05,0,0,0.05,5,0)" xlink:href="#ag"/><use transform="matrix(0.05,0,0,0.05,15,0)" xlink:href="#V"/></g><g id="z"><use transform="matrix(0.05,0,0,0.05,0,0)" xlink:href="#V"/><use transform="matrix(0.05,0,0,0.05,5.95,0)" xlink:href="#M"/><use transform="matrix(0.05,0,0,0.05,15.949999999999998,0)" xlink:href="#U"/><use transform="matrix(0.05,0,0,0.05,24.95,0)" xlink:href="#T"/><use transform="matrix(0.05,0,0,0.05,34.95,0)" xlink:href="#P"/><use transform="matrix(0.05,0,0,0.05,38.900000000000006,0)" xlink:href="#R"/></g><path d="M106-169C34-169 62-67 57 0H25v-261h32l-1 103c12-21 28-36 61-36 89 0 53 116 60 194h-32v-121c2-32-8-49-39-48" id="as"/><g id="A"><use transform="matrix(0.05,0,0,0.05,0,0)" xlink:href="#O"/><use transform="matrix(0.05,0,0,0.05,10,0)" xlink:href="#T"/><use transform="matrix(0.05,0,0,0.05,20,0)" xlink:href="#ai"/><use transform="matrix(0.05,0,0,0.05,30,0)" xlink:href="#P"/><use transform="matrix(0.05,0,0,0.05,33.95,0)" xlink:href="#Y"/><use transform="matrix(0.05,0,0,0.05,37.900000000000006,0)" xlink:href="#U"/><use transform="matrix(0.05,0,0,0.05,46.900000000000006,0)" xlink:href="#as"/></g><g id="B"><use transform="matrix(0.05,0,0,0.05,0,0)" xlink:href="#ak"/><use transform="matrix(0.05,0,0,0.05,11.35,0)" xlink:href="#al"/><use transform="matrix(0.05,0,0,0.05,28.299999999999997,0)" xlink:href="#ab"/><use transform="matrix(0.05,0,0,0.05,40.3,0)" xlink:href="#ae"/><use transform="matrix(0.05,0,0,0.05,45.3,0)" xlink:href="#ae"/><use transform="matrix(0.05,0,0,0.05,50.3,0)" xlink:href="#am"/><use transform="matrix(0.05,0,0,0.05,63.25,0)" xlink:href="#M"/><use transform="matrix(0.05,0,0,0.05,73.25,0)" xlink:href="#U"/><use transform="matrix(0.05,0,0,0.05,82.25,0)" xlink:href="#ag"/><use transform="matrix(0.05,0,0,0.05,92.25,0)" xlink:href="#T"/><use transform="matrix(0.05,0,0,0.05,102.25,0)" xlink:href="#V"/><use transform="matrix(0.05,0,0,0.05,108.2,0)" xlink:href="#ad"/><use transform="matrix(0.05,0,0,0.05,117.2,0)" xlink:href="#M"/><use transform="matrix(0.05,0,0,0.05,127.2,0)" xlink:href="#ak"/></g><g id="C"><use transform="matrix(0.05,0,0,0.05,0,0)" xlink:href="#ad"/><use transform="matrix(0.05,0,0,0.05,9,0)" xlink:href="#Q"/><use transform="matrix(0.05,0,0,0.05,19,0)" xlink:href="#Z"/></g><g id="D"><use transform="matrix(0.05,0,0,0.05,0,0)" xlink:href="#V"/><use transform="matrix(0.05,0,0,0.05,5.95,0)" xlink:href="#M"/><use transform="matrix(0.05,0,0,0.05,15.949999999999998,0)" xlink:href="#X"/><use transform="matrix(0.05,0,0,0.05,20.95,0)" xlink:href="#M"/><use transform="matrix(0.05,0,0,0.05,30.950000000000003,0)" xlink:href="#V"/><use transform="matrix(0.05,0,0,0.05,36.9,0)" xlink:href="#M"/><use transform="matrix(0.05,0,0,0.05,46.9,0)" xlink:href="#Z"/><use transform="matrix(0.05,0,0,0.05,56.900000000000006,0)" xlink:href="#ad"/><use transform="matrix(0.05,0,0,0.05,65.9,0)" xlink:href="#M"/></g><g id="E"><use transform="matrix(0.05,0,0,0.05,0,0)" xlink:href="#W"/><use transform="matrix(0.05,0,0,0.05,10,0)" xlink:href="#M"/><use transform="matrix(0.05,0,0,0.05,20,0)" xlink:href="#X"/><use transform="matrix(0.05,0,0,0.05,25,0)" xlink:href="#Y"/><use transform="matrix(0.05,0,0,0.05,28.950000000000003,0)" xlink:href="#Z"/><use transform="matrix(0.05,0,0,0.05,38.95,0)" xlink:href="#M"/><use transform="matrix(0.05,0,0,0.05,48.95,0)" xlink:href="#U"/></g><g id="F"><use transform="matrix(0.05,0,0,0.05,0,0)" xlink:href="#as"/><use transform="matrix(0.05,0,0,0.05,10,0)" xlink:href="#Q"/><use transform="matrix(0.05,0,0,0.05,20,0)" xlink:href="#Z"/><use transform="matrix(0.05,0,0,0.05,30,0)" xlink:href="#W"/><use transform="matrix(0.05,0,0,0.05,40,0)" xlink:href="#P"/><use transform="matrix(0.05,0,0,0.05,43.95,0)" xlink:href="#M"/><use transform="matrix(0.05,0,0,0.05,53.95,0)" xlink:href="#V"/><use transform="matrix(0.05,0,0,0.05,59.900000000000006,0)" xlink:href="#U"/></g><g id="G"><use transform="matrix(0.05,0,0,0.05,0,0)" xlink:href="#X"/><use transform="matrix(0.05,0,0,0.05,5,0)" xlink:href="#ag"/><use transform="matrix(0.05,0,0,0.05,15,0)" xlink:href="#V"/></g><path d="M68-38c1 34 0 65-14 84H32c9-13 17-26 17-46H33v-38h35" id="at"/><g id="H"><use transform="matrix(0.05,0,0,0.05,0,0)" xlink:href="#ad"/><use transform="matrix(0.05,0,0,0.05,9,0)" xlink:href="#V"/><use transform="matrix(0.05,0,0,0.05,14.949999999999998,0)" xlink:href="#M"/><use transform="matrix(0.05,0,0,0.05,24.95,0)" xlink:href="#Q"/><use transform="matrix(0.05,0,0,0.05,34.95,0)" xlink:href="#R"/><use transform="matrix(0.05,0,0,0.05,39.95,0)" xlink:href="#M"/><use transform="matrix(0.05,0,0,0.05,49.95,0)" xlink:href="#at"/></g><g id="I"><use transform="matrix(0.05,0,0,0.05,0,0)" xlink:href="#T"/><use transform="matrix(0.05,0,0,0.05,10,0)" xlink:href="#O"/><use transform="matrix(0.05,0,0,0.05,20,0)" xlink:href="#W"/><use transform="matrix(0.05,0,0,0.05,30,0)" xlink:href="#Q"/><use transform="matrix(0.05,0,0,0.05,40,0)" xlink:href="#R"/><use transform="matrix(0.05,0,0,0.05,45,0)" xlink:href="#M"/><use transform="matrix(0.05,0,0,0.05,55,0)" xlink:href="#at"/></g><g id="J"><use transform="matrix(0.05,0,0,0.05,0,0)" xlink:href="#W"/><use transform="matrix(0.05,0,0,0.05,10,0)" xlink:href="#M"/><use transform="matrix(0.05,0,0,0.05,20,0)" xlink:href="#P"/><use transform="matrix(0.05,0,0,0.05,23.95,0)" xlink:href="#M"/><use transform="matrix(0.05,0,0,0.05,33.95,0)" xlink:href="#R"/><use transform="matrix(0.05,0,0,0.05,38.95,0)" xlink:href="#M"/></g></defs></g></svg>